<svg width="24" height="24" viewBox="0 0 24 24" fill="none" xmlns="http://www.w3.org/2000/svg">
	<path id="path" d="M2.37 9.65C2.37 9.85 2.44 10.03 2.58 10.18C2.73 10.32 2.91 10.39 3.11 10.39C3.32 10.39 3.5 10.32 3.65 10.18C3.81 10.03 3.88 9.85 3.88 9.65L3.88 4.94L9.13 10.22C9.28 10.36 9.46 10.44 9.66 10.44C9.87 10.44 10.05 10.36 10.2 10.22C10.35 10.08 10.43 9.9 10.43 9.7C10.43 9.48 10.35 9.31 10.2 9.16L4.91 3.85L9.61 3.85C9.83 3.85 10 3.78 10.14 3.65C10.29 3.5 10.36 3.32 10.36 3.12C10.36 2.91 10.29 2.73 10.14 2.59C10 2.45 9.83 2.38 9.61 2.38L3.66 2.38C3.31 2.38 3.01 2.5 2.75 2.75C2.5 2.99 2.37 3.3 2.37 3.66L2.37 9.65ZM13.62 20.88C13.62 21.08 13.7 21.26 13.84 21.41C13.99 21.55 14.16 21.62 14.37 21.62L20.32 21.62C20.69 21.62 21 21.49 21.25 21.24C21.49 20.98 21.61 20.68 21.61 20.33L21.61 14.35C21.61 14.14 21.54 13.96 21.4 13.82C21.26 13.68 21.08 13.61 20.87 13.61C20.67 13.61 20.49 13.68 20.33 13.82C20.18 13.96 20.1 14.14 20.1 14.35L20.1 19.03L14.85 13.78C14.71 13.63 14.53 13.56 14.32 13.56C14.12 13.56 13.94 13.63 13.79 13.78C13.63 13.92 13.55 14.09 13.55 14.3C13.55 14.51 13.63 14.69 13.79 14.83L19.05 20.11L14.37 20.11C14.16 20.11 13.99 20.18 13.84 20.34C13.7 20.49 13.62 20.67 13.62 20.88Z" fill="#000000" fill-opacity="1" fill-rule="nonzero"/>
</svg>
