<svg width="24.000000" height="24.000000" viewBox="0 0 24 24" fill="none" xmlns="http://www.w3.org/2000/svg" xmlns:xlink="http://www.w3.org/1999/xlink">
	<desc>
			Created with Pixso.
	</desc>
	<defs>
		<clipPath id="clip53_57423">
			<rect id="svg" width="24.000000" height="24.000000" fill="white" fill-opacity="0"/>
		</clipPath>
		<clipPath id="clip50_49558">
			<rect id="ic_arrow_down_circle" width="24.000000" height="24.000000" fill="white" fill-opacity="0"/>
		</clipPath>
	</defs>
	<rect id="ic_arrow_down_circle" width="24.000000" height="24.000000" fill="#FFFFFF" fill-opacity="0"/>
	<g clip-path="url(#clip50_49558)">
		<g clip-path="url(#clip53_57423)">
			<path id="path" d="M17.04 13.34C17.18 13.2 17.26 13.02 17.26 12.82C17.26 12.6 17.18 12.43 17.04 12.29C16.91 12.14 16.74 12.07 16.52 12.07C16.3 12.07 16.12 12.14 15.98 12.29L12.74 15.53L12.74 6.73C12.74 6.53 12.66 6.35 12.53 6.21C12.38 6.07 12.2 6 12 6C11.79 6 11.61 6.07 11.47 6.21C11.33 6.35 11.26 6.53 11.26 6.73L11.26 15.55L7.98 12.29C7.84 12.14 7.67 12.07 7.45 12.07C7.25 12.07 7.08 12.14 6.93 12.29C6.79 12.43 6.71 12.6 6.71 12.82C6.71 13.02 6.79 13.2 6.93 13.34L10.73 17.14C11.09 17.48 11.52 17.66 12.01 17.66C12.49 17.66 12.91 17.48 13.27 17.14L17.04 13.34Z" fill="#FFFFFF" fill-opacity="0.9" fill-rule="nonzero"/>
			<path id="path" d="M12 1.01C10.01 1.01 8.17 1.5 6.48 2.47C4.8 3.46 3.46 4.8 2.47 6.48C1.5 8.17 1.01 10.01 1.01 12C1.01 13.98 1.5 15.82 2.47 17.51C3.46 19.19 4.8 20.53 6.48 21.52C8.17 22.5 10.01 22.99 12 22.99C13.98 22.99 15.82 22.5 17.5 21.52C19.17 20.53 20.51 19.19 21.5 17.51C22.49 15.82 22.99 13.98 22.99 12C22.99 10.01 22.49 8.17 21.5 6.48C20.51 4.8 19.17 3.46 17.5 2.47C15.82 1.5 13.98 1.01 12 1.01ZM12 21.5C10.28 21.5 8.7 21.07 7.25 20.21C5.79 19.36 4.63 18.2 3.78 16.75C2.92 15.29 2.5 13.71 2.5 12C2.5 10.27 2.92 8.67 3.78 7.22C4.63 5.76 5.79 4.61 7.25 3.77C8.7 2.92 10.28 2.5 12 2.5C13.71 2.5 15.29 2.92 16.75 3.77C18.2 4.61 19.36 5.76 20.21 7.22C21.07 8.67 21.5 10.27 21.5 12C21.5 13.71 21.07 15.29 20.21 16.75C19.36 18.2 18.2 19.36 16.75 20.21C15.29 21.07 13.71 21.5 12 21.5Z" fill="#FFFFFF" fill-opacity="0.9" fill-rule="nonzero"/>
		</g>
	</g>
</svg>
