<svg width="24.000000" height="24.000000" viewBox="0 0 24 24" fill="none" xmlns="http://www.w3.org/2000/svg" xmlns:xlink="http://www.w3.org/1999/xlink">
	<path id="path" d="M9.5 18.18C9.77 18.18 10.04 18.13 10.29 18.03C10.55 17.93 10.77 17.78 10.97 17.58L21.52 7.07C21.66 6.93 21.73 6.75 21.73 6.54C21.73 6.34 21.66 6.16 21.52 6.02C21.38 5.85 21.2 5.77 21 5.77C20.79 5.77 20.6 5.85 20.45 6.02L9.89 16.53C9.77 16.64 9.64 16.69 9.5 16.69C9.35 16.69 9.23 16.64 9.12 16.53L3.52 10.98C3.38 10.82 3.2 10.75 3 10.75C2.79 10.77 2.61 10.84 2.47 10.98C2.31 11.13 2.22 11.31 2.22 11.52C2.22 11.72 2.31 11.9 2.47 12.04L8.06 17.58C8.25 17.78 8.47 17.93 8.72 18.03C8.97 18.13 9.23 18.18 9.5 18.18Z" fill="#FFFFFF" fill-opacity="0.86" fill-rule="nonzero"/>
</svg>
