<svg width="24" height="24" viewBox="0 0 24 24" fill="none" xmlns="http://www.w3.org/2000/svg">
    <path id="path" d="M19.51 14.25C19.89 14.03 20.21 13.7 20.46 13.27C20.71 12.85 20.82 12.41 20.82 11.95C20.81 11.49 20.69 11.05 20.46 10.66C20.25 10.25 19.92 9.93 19.51 9.69L7.93 3.04C7.56 2.82 7.12 2.7 6.62 2.7C6.13 2.7 5.69 2.82 5.3 3.05C4.89 3.29 4.58 3.6 4.36 4C4.12 4.4 4.01 4.84 4.01 5.32L4.01 18.6C4.01 19.09 4.12 19.53 4.34 19.92C4.58 20.33 4.89 20.65 5.3 20.89C5.69 21.12 6.13 21.24 6.61 21.24C7.08 21.25 7.52 21.14 7.93 20.9L19.51 14.25Z" fill="#ffffff" fill-opacity="0.9" fill-rule="nonzero"/>
</svg>
