<svg width="24.000000" height="24.000000" viewBox="0 0 24 24" fill="none" xmlns="http://www.w3.org/2000/svg">
	<path id="path" d="M16.51 3.5C16.09 3.5 15.74 3.64 15.43 3.94C15.14 4.22 15 4.57 15 4.98L15 19.01C15 19.42 15.14 19.77 15.43 20.06C15.74 20.35 16.09 20.5 16.51 20.5C16.92 20.5 17.28 20.35 17.57 20.04C17.85 19.75 18 19.41 18 19.01L18 4.98C18 4.57 17.85 4.22 17.57 3.94C17.28 3.64 16.92 3.5 16.51 3.5ZM7.51 3.5C7.09 3.5 6.73 3.64 6.43 3.94C6.14 4.22 6 4.57 6 4.98L6 19.01C6 19.42 6.14 19.77 6.43 20.06C6.73 20.35 7.09 20.5 7.51 20.5C7.92 20.5 8.28 20.35 8.57 20.04C8.85 19.75 9 19.41 9 19.01L9 4.98C9 4.57 8.85 4.22 8.57 3.94C8.28 3.64 7.92 3.5 7.51 3.5Z" fill="#000000" fill-opacity="1" fill-rule="nonzero"/>
</svg>
