<svg width="24.000000" height="24.000000" viewBox="0 0 24 24" fill="none" xmlns="http://www.w3.org/2000/svg">
	<path id="path" d="M13.84 18.65C13.57 18.52 13.35 18.33 13.19 18.08C13.03 17.83 12.95 17.56 12.95 17.26L12.95 6.83C12.95 6.53 13.03 6.25 13.19 6C13.35 5.74 13.57 5.56 13.84 5.45C14.12 5.32 14.4 5.27 14.68 5.29C14.97 5.33 15.23 5.44 15.45 5.64L18.88 8.45L21.49 8.45C22.04 8.45 22.5 8.63 22.87 9.01C23.25 9.39 23.44 9.84 23.44 10.39L23.44 13.68C23.44 14.22 23.25 14.69 22.87 15.07C22.5 15.45 22.04 15.65 21.49 15.65L18.88 15.65L15.45 18.45C15.21 18.63 14.95 18.74 14.65 18.78C14.37 18.82 14.1 18.77 13.84 18.65ZM18.35 9.93L14.44 6.83L14.51 17.28L18.35 14.16L21.49 14.16C21.63 14.16 21.74 14.11 21.82 14.02C21.91 13.92 21.95 13.8 21.95 13.68L21.95 10.39C21.95 10.26 21.91 10.15 21.82 10.07C21.74 9.98 21.63 9.93 21.49 9.93L18.35 9.93Z" fill="#FFFFFF" fill-opacity="0.9" fill-rule="nonzero"/>
	<path id="path" d="M9.88 9.11C10.04 8.97 10.22 8.89 10.42 8.88C10.62 8.88 10.8 8.95 10.96 9.09C11.1 9.23 11.17 9.41 11.17 9.61C11.17 9.83 11.1 10 10.96 10.14C10.72 10.41 10.54 10.69 10.41 10.99C10.28 11.31 10.21 11.64 10.21 11.99C10.21 12.36 10.28 12.71 10.41 13.03C10.54 13.35 10.73 13.62 10.98 13.86C11.13 14.01 11.2 14.19 11.2 14.4C11.2 14.6 11.13 14.78 10.98 14.92C10.84 15.09 10.67 15.17 10.45 15.17C10.25 15.17 10.07 15.09 9.93 14.92C9.55 14.54 9.25 14.1 9.03 13.6C8.81 13.09 8.7 12.56 8.7 12.02C8.7 11.48 8.81 10.95 9.01 10.45C9.23 9.94 9.52 9.5 9.88 9.11Z" fill="#FFFFFF" fill-opacity="0.9" fill-rule="nonzero"/>
	<path id="path" d="M7.05 6.4C7.19 6.26 7.37 6.19 7.57 6.19C7.79 6.19 7.96 6.26 8.1 6.4C8.25 6.54 8.32 6.72 8.32 6.94C8.32 7.14 8.25 7.32 8.1 7.46C7.51 8.05 7.05 8.74 6.72 9.53C6.4 10.33 6.23 11.15 6.23 12C6.23 12.84 6.39 13.66 6.71 14.44C7.03 15.21 7.49 15.9 8.08 16.51C8.24 16.65 8.32 16.83 8.32 17.04C8.32 17.24 8.24 17.42 8.08 17.57C7.94 17.73 7.76 17.81 7.55 17.81C7.35 17.81 7.17 17.73 7.02 17.57C6.29 16.83 5.72 15.98 5.32 15.02C4.92 14.06 4.72 13.05 4.72 12C4.72 10.94 4.92 9.93 5.32 8.96C5.72 7.99 6.3 7.14 7.05 6.4Z" fill="#FFFFFF" fill-opacity="0.9" fill-rule="nonzero"/>
	<path id="path" d="M3.9 3.88C4.05 3.74 4.23 3.66 4.43 3.66C4.64 3.66 4.82 3.74 4.96 3.88C5.1 4.02 5.17 4.2 5.17 4.41C5.17 4.62 5.1 4.79 4.96 4.94C4.02 5.87 3.29 6.94 2.79 8.15C2.29 9.37 2.03 10.65 2.03 12C2.03 13.32 2.29 14.6 2.79 15.82C3.29 17.03 4.01 18.11 4.93 19.06C5.09 19.2 5.17 19.37 5.16 19.58C5.16 19.79 5.08 19.96 4.93 20.11C4.79 20.25 4.62 20.33 4.41 20.33C4.2 20.33 4.02 20.25 3.88 20.11C2.82 19.03 2 17.79 1.42 16.39C0.84 14.98 0.54 13.52 0.54 12C0.54 10.46 0.84 9 1.42 7.59C2 6.2 2.83 4.96 3.9 3.88Z" fill="#FFFFFF" fill-opacity="0.9" fill-rule="nonzero"/>
</svg>
