<svg width="24.000000" height="24.000000" viewBox="0 0 24 24" fill="none" xmlns="http://www.w3.org/2000/svg" xmlns:xlink="http://www.w3.org/1999/xlink">
	<path id="path" d="M16.31 20.54C16.55 20.54 16.82 20.47 17.1 20.35C17.42 20.2 17.68 19.99 17.86 19.69C18.04 19.39 18.13 19.06 18.13 18.7L18.13 3.89C18.13 3.52 18.04 3.19 17.86 2.89C17.68 2.59 17.42 2.37 17.1 2.23C16.78 2.07 16.45 2.01 16.09 2.05C15.75 2.09 15.43 2.22 15.13 2.45L10.29 6.36L6.57 6.36C6.12 6.36 5.71 6.46 5.34 6.68C4.98 6.9 4.69 7.19 4.47 7.56C4.26 7.92 4.14 8.33 4.14 8.78L4.14 13.8C4.14 14.24 4.26 14.65 4.47 15.02C4.69 15.39 4.98 15.68 5.34 15.9C5.71 16.11 6.12 16.21 6.57 16.21L10.29 16.21L15.13 20.14C15.49 20.4 15.88 20.54 16.31 20.54ZM10.81 7.87L16.07 3.6C16.15 3.55 16.23 3.53 16.29 3.53C16.35 3.53 16.4 3.54 16.43 3.58C16.5 3.59 16.55 3.62 16.59 3.68C16.63 3.74 16.65 3.81 16.65 3.89L16.65 18.7C16.65 18.82 16.58 18.93 16.43 19.03C16.32 19.06 16.2 19.04 16.07 18.95L10.81 14.71L6.57 14.71C6.31 14.71 6.09 14.62 5.91 14.45C5.73 14.27 5.63 14.05 5.63 13.8L5.63 8.78C5.63 8.52 5.73 8.31 5.91 8.14C6.09 7.96 6.31 7.87 6.57 7.87L10.81 7.87Z" fill="#000000" fill-opacity="1.000000" fill-rule="nonzero"/>
	<path id="path" d="M21.22 21.22C21.36 21.07 21.42 20.89 21.42 20.69C21.42 20.48 21.36 20.3 21.22 20.16L3.79 2.73C3.64 2.59 3.47 2.51 3.26 2.51C3.05 2.5 2.88 2.57 2.73 2.73C2.59 2.88 2.52 3.05 2.52 3.26C2.52 3.47 2.59 3.64 2.73 3.78L20.15 21.22C20.3 21.36 20.48 21.43 20.68 21.43C20.89 21.43 21.07 21.36 21.22 21.22Z" fill="#000000" fill-opacity="1.000000" fill-rule="nonzero"/>
</svg>

