<svg width="24" height="24" viewBox="0 0 24 24" fill="none" xmlns="http://www.w3.org/2000/svg">
	<path id="path" d="M10.14 18.65C10.42 18.52 10.63 18.33 10.79 18.08C10.95 17.83 11.03 17.56 11.03 17.26L11.03 6.83C11.03 6.53 10.95 6.25 10.79 6C10.63 5.74 10.42 5.56 10.14 5.45C9.87 5.32 9.59 5.27 9.3 5.29C9.02 5.33 8.76 5.44 8.53 5.64L5.1 8.45L2.49 8.45C1.95 8.45 1.49 8.63 1.11 9.01C0.73 9.39 0.54 9.84 0.54 10.39L0.54 13.68C0.54 14.22 0.73 14.69 1.11 15.07C1.49 15.45 1.95 15.65 2.49 15.65L5.1 15.65L8.53 18.45C8.77 18.63 9.04 18.74 9.33 18.78C9.62 18.82 9.89 18.77 10.14 18.65ZM5.63 9.93L9.54 6.83L9.47 17.28L5.63 14.16L2.49 14.16C2.36 14.16 2.25 14.11 2.16 14.02C2.08 13.92 2.03 13.8 2.03 13.68L2.03 10.39C2.03 10.26 2.08 10.15 2.16 10.07C2.25 9.98 2.36 9.93 2.49 9.93L5.63 9.93Z" fill="#ffffff" fill-opacity="0.9" fill-rule="nonzero"/>
	<path id="path" d="M14.1 9.11C13.94 8.97 13.76 8.89 13.56 8.88C13.36 8.88 13.18 8.95 13.02 9.09C12.88 9.23 12.81 9.41 12.81 9.61C12.81 9.83 12.88 10 13.02 10.14C13.26 10.41 13.45 10.69 13.57 10.99C13.71 11.31 13.77 11.64 13.77 11.99C13.77 12.36 13.71 12.71 13.57 13.03C13.45 13.35 13.26 13.62 13 13.86C12.86 14.01 12.78 14.19 12.78 14.4C12.78 14.6 12.86 14.78 13 14.92C13.14 15.09 13.32 15.17 13.53 15.17C13.74 15.17 13.91 15.09 14.05 14.92C14.44 14.54 14.74 14.1 14.95 13.6C15.17 13.09 15.28 12.56 15.28 12.02C15.28 11.48 15.18 10.95 14.97 10.45C14.76 9.94 14.47 9.5 14.1 9.11Z" fill="#ffffff" fill-opacity="0.9" fill-rule="nonzero"/>
	<path id="path" d="M16.93 6.4C16.79 6.26 16.62 6.19 16.41 6.19C16.2 6.19 16.03 6.26 15.88 6.4C15.74 6.54 15.66 6.72 15.66 6.94C15.66 7.14 15.74 7.32 15.88 7.46C16.48 8.05 16.94 8.74 17.27 9.53C17.59 10.33 17.76 11.15 17.76 12C17.76 12.84 17.59 13.66 17.28 14.44C16.95 15.21 16.5 15.9 15.9 16.51C15.75 16.65 15.66 16.83 15.66 17.04C15.66 17.24 15.75 17.42 15.9 17.57C16.05 17.73 16.23 17.81 16.43 17.81C16.64 17.81 16.82 17.73 16.96 17.57C17.7 16.83 18.27 15.98 18.66 15.02C19.06 14.06 19.27 13.05 19.27 12C19.27 10.94 19.06 9.93 18.66 8.96C18.27 7.99 17.69 7.14 16.93 6.4Z" fill="#ffffff" fill-opacity="0.9" fill-rule="nonzero"/>
	<path id="path" d="M20.08 3.88C19.94 3.74 19.76 3.66 19.55 3.66C19.35 3.66 19.17 3.74 19.02 3.88C18.88 4.02 18.81 4.2 18.81 4.41C18.81 4.62 18.88 4.79 19.02 4.94C19.97 5.87 20.69 6.94 21.19 8.15C21.7 9.37 21.95 10.65 21.95 12C21.95 13.32 21.7 14.6 21.19 15.82C20.69 17.03 19.98 18.11 19.05 19.06C18.89 19.2 18.82 19.37 18.82 19.58C18.83 19.79 18.91 19.96 19.05 20.11C19.19 20.25 19.37 20.33 19.57 20.33C19.79 20.33 19.96 20.25 20.1 20.11C21.16 19.03 21.98 17.79 22.56 16.39C23.15 14.98 23.44 13.52 23.44 12C23.44 10.46 23.15 9 22.56 7.59C21.98 6.2 21.16 4.96 20.08 3.88Z" fill="#ffffff" fill-opacity="0.9" fill-rule="nonzero"/>
</svg>
