<svg width="24" height="24" viewBox="0 0 24 24" fill="none" xmlns="http://www.w3.org/2000/svg">
	<path id="path" d="M5.96 20.54C5.72 20.54 5.46 20.47 5.17 20.35C4.85 20.2 4.6 19.99 4.41 19.69C4.23 19.39 4.14 19.06 4.14 18.7L4.14 3.89C4.14 3.52 4.23 3.19 4.41 2.89C4.6 2.59 4.85 2.37 5.17 2.23C5.5 2.07 5.83 2.01 6.18 2.05C6.53 2.09 6.85 2.22 7.14 2.45L11.99 6.36L15.71 6.36C16.16 6.36 16.57 6.46 16.93 6.68C17.3 6.9 17.59 7.19 17.8 7.56C18.02 7.92 18.13 8.33 18.13 8.78L18.13 13.8C18.13 14.24 18.02 14.65 17.8 15.02C17.59 15.39 17.3 15.68 16.93 15.9C16.57 16.11 16.16 16.21 15.71 16.21L11.99 16.21L7.14 20.14C6.79 20.4 6.4 20.54 5.96 20.54ZM11.47 7.87L6.2 3.6C6.12 3.55 6.05 3.53 5.98 3.53C5.92 3.53 5.88 3.54 5.84 3.58C5.78 3.59 5.72 3.62 5.68 3.68C5.64 3.74 5.62 3.81 5.62 3.89L5.62 18.7C5.62 18.82 5.7 18.93 5.84 19.03C5.96 19.06 6.08 19.04 6.2 18.95L11.47 14.71L15.71 14.71C15.97 14.71 16.18 14.62 16.36 14.45C16.55 14.27 16.64 14.05 16.64 13.8L16.64 8.78C16.64 8.52 16.55 8.31 16.36 8.14C16.18 7.96 15.97 7.87 15.71 7.87L11.47 7.87Z" fill="#FFFFFF" fill-opacity="0.9" fill-rule="nonzero"/>
	<path id="path" d="M21.22 21.22C21.36 21.07 21.42 20.89 21.42 20.69C21.42 20.48 21.36 20.3 21.22 20.16L3.79 2.73C3.64 2.59 3.47 2.51 3.26 2.51C3.05 2.5 2.88 2.57 2.73 2.73C2.59 2.88 2.52 3.05 2.52 3.26C2.52 3.47 2.59 3.64 2.73 3.78L20.15 21.22C20.3 21.36 20.48 21.43 20.68 21.43C20.89 21.43 21.07 21.36 21.22 21.22Z" fill="#FFFFFF" fill-opacity="0.9" fill-rule="nonzero"/>
</svg>
